<svg data-v-423bf9ae="" xmlns="http://www.w3.org/2000/svg" viewBox="0 0 444 90" class="iconLeft"><!----><!----><!----><g data-v-423bf9ae="" id="1686edab-707a-4695-acac-5187785ea82a" fill="black" transform="matrix(3.968253998289063,0,0,3.968253998289063,151.9328241670993,7.222221535139404)"><path d="M3.89 5.04L6.13 11.17L7.95 6.51L7.95 6.51Q8.22 5.82 8.38 5.39L8.38 5.39L8.38 5.39Q8.54 4.96 8.62 4.68L8.62 4.68L8.62 4.68Q8.71 4.40 8.74 4.23L8.74 4.23L8.74 4.23Q8.76 4.06 8.76 3.91L8.76 3.91L8.76 3.91Q8.76 3.57 8.51 3.46L8.51 3.46L8.51 3.46Q8.26 3.36 7.50 3.36L7.50 3.36L7.50 2.80L11.48 2.80L11.48 3.36L11.48 3.36Q10.32 3.36 9.87 4.49L9.87 4.49L6.19 13.72L5.15 13.72L1.81 5.54L1.81 5.54Q1.53 4.89 1.30 4.47L1.30 4.47L1.30 4.47Q1.08 4.05 0.83 3.80L0.83 3.80L0.83 3.80Q0.57 3.56 0.27 3.46L0.27 3.46L0.27 3.46Q-0.03 3.37-0.43 3.37L-0.43 3.37L-0.43 2.80L4.86 2.80L4.86 3.37L4.86 3.37Q4.49 3.39 4.25 3.42L4.25 3.42L4.25 3.42Q4.00 3.44 3.86 3.51L3.86 3.51L3.86 3.51Q3.72 3.57 3.67 3.68L3.67 3.68L3.67 3.68Q3.61 3.78 3.61 3.93L3.61 3.93L3.61 3.93Q3.61 4.13 3.68 4.40L3.68 4.40L3.68 4.40Q3.75 4.66 3.89 5.04L3.89 5.04ZM14.66 6.02L14.66 11.28L14.66 11.28Q14.66 11.84 14.70 12.18L14.70 12.18L14.70 12.18Q14.74 12.52 14.87 12.70L14.87 12.70L14.87 12.70Q14.99 12.88 15.23 12.94L15.23 12.94L15.23 12.94Q15.47 13.01 15.88 13.02L15.88 13.02L15.88 13.58L11.47 13.58L11.47 13.02L11.47 13.02Q11.86 13.01 12.10 12.93L12.10 12.93L12.10 12.93Q12.35 12.85 12.48 12.68L12.48 12.68L12.48 12.68Q12.61 12.50 12.66 12.19L12.66 12.19L12.66 12.19Q12.71 11.87 12.71 11.38L12.71 11.38L12.71 9.66L12.71 9.66Q12.71 8.85 12.68 8.32L12.68 8.32L12.68 8.32Q12.66 7.80 12.61 7.60L12.61 7.60L12.61 7.60Q12.54 7.25 12.30 7.14L12.30 7.14L12.30 7.14Q12.05 7.03 11.41 7.03L11.41 7.03L11.41 6.55L14.66 6.02ZM12.60 3.05L12.60 3.05L12.60 3.05Q12.60 2.59 12.91 2.28L12.91 2.28L12.91 2.28Q13.23 1.96 13.68 1.96L13.68 1.96L13.68 1.96Q14.14 1.96 14.45 2.28L14.45 2.28L14.45 2.28Q14.77 2.59 14.77 3.05L14.77 3.05L14.77 3.05Q14.77 3.50 14.45 3.81L14.45 3.81L14.45 3.81Q14.14 4.13 13.68 4.13L13.68 4.13L13.68 4.13Q13.23 4.13 12.91 3.81L12.91 3.81L12.91 3.81Q12.60 3.50 12.60 3.05ZM23.56 11.20L23.39 13.58L16.48 13.58L16.48 13.26L20.86 6.90L19.57 6.90L19.57 6.90Q18.97 6.90 18.59 6.95L18.59 6.95L18.59 6.95Q18.21 7 17.98 7.16L17.98 7.16L17.98 7.16Q17.75 7.32 17.63 7.60L17.63 7.60L17.63 7.60Q17.51 7.88 17.43 8.34L17.43 8.34L16.88 8.34L17.05 6.16L23.37 6.16L23.37 6.48L19.05 12.82L20.29 12.82L20.29 12.82Q21.01 12.82 21.49 12.76L21.49 12.76L21.49 12.76Q21.97 12.70 22.26 12.52L22.26 12.52L22.26 12.52Q22.55 12.35 22.72 12.03L22.72 12.03L22.72 12.03Q22.89 11.72 23.02 11.20L23.02 11.20L23.56 11.20ZM37.42 3.67L37.69 2.80L38.37 2.80L38.09 6.34L37.53 6.34L37.53 6.34Q37.24 5.05 36.39 4.31L36.39 4.31L36.39 4.31Q35.55 3.57 34.34 3.57L34.34 3.57L34.34 3.57Q33.52 3.57 32.87 3.90L32.87 3.90L32.87 3.90Q32.23 4.23 31.79 4.84L31.79 4.84L31.79 4.84Q31.35 5.45 31.11 6.32L31.11 6.32L31.11 6.32Q30.88 7.20 30.88 8.29L30.88 8.29L30.88 8.29Q30.88 10.46 31.77 11.63L31.77 11.63L31.77 11.63Q32.66 12.80 34.40 12.80L34.40 12.80L34.40 12.80Q35.80 12.80 36.71 12.04L36.71 12.04L36.71 12.04Q37.63 11.28 38.02 9.79L38.02 9.79L38.64 9.79L38.64 13.58L37.98 13.58L37.79 12.47L37.79 12.47Q36.25 13.72 34.05 13.72L34.05 13.72L34.05 13.72Q32.77 13.72 31.74 13.34L31.74 13.34L31.74 13.34Q30.70 12.96 29.97 12.27L29.97 12.27L29.97 12.27Q29.25 11.58 28.85 10.58L28.85 10.58L28.85 10.58Q28.45 9.59 28.45 8.37L28.45 8.37L28.45 8.37Q28.45 7.10 28.87 6.05L28.87 6.05L28.87 6.05Q29.29 5.00 30.05 4.24L30.05 4.24L30.05 4.24Q30.81 3.49 31.87 3.07L31.87 3.07L31.87 3.07Q32.93 2.66 34.22 2.66L34.22 2.66L34.22 2.66Q35.07 2.66 35.81 2.90L35.81 2.90L35.81 2.90Q36.55 3.14 37.42 3.67L37.42 3.67ZM45.82 9.91L45.82 8.46L45.82 8.46Q45.82 7.90 45.79 7.57L45.79 7.57L45.79 7.57Q45.77 7.24 45.64 7.06L45.64 7.06L45.64 7.06Q45.51 6.89 45.27 6.83L45.27 6.83L45.27 6.83Q45.02 6.76 44.60 6.72L44.60 6.72L44.60 6.16L47.77 6.16L47.77 10.40L47.77 10.40Q47.77 11.26 47.79 11.74L47.79 11.74L47.79 11.74Q47.81 12.22 47.87 12.46L47.87 12.46L47.87 12.46Q47.91 12.64 47.96 12.75L47.96 12.75L47.96 12.75Q48.02 12.85 48.15 12.91L48.15 12.91L48.15 12.91Q48.27 12.98 48.49 13.00L48.49 13.00L48.49 13.00Q48.71 13.02 49.06 13.02L49.06 13.02L49.06 13.57L46.27 13.73L46.12 12.49L46.06 12.49L46.06 12.49Q45.70 13.08 45.04 13.40L45.04 13.40L45.04 13.40Q44.38 13.72 43.57 13.72L43.57 13.72L43.57 13.72Q42.07 13.72 41.29 12.66L41.29 12.66L41.29 12.66Q40.68 11.84 40.68 10.35L40.68 10.35L40.68 8.46L40.68 8.46Q40.68 7.88 40.66 7.55L40.66 7.55L40.66 7.55Q40.63 7.22 40.51 7.06L40.51 7.06L40.51 7.06Q40.39 6.89 40.15 6.83L40.15 6.83L40.15 6.83Q39.91 6.76 39.49 6.72L39.49 6.72L39.49 6.16L42.63 6.16L42.63 10.12L42.63 10.12Q42.63 11.54 42.98 12.17L42.98 12.17L42.98 12.17Q43.33 12.81 44.10 12.81L44.10 12.81L44.10 12.81Q44.93 12.81 45.37 12.05L45.37 12.05L45.37 12.05Q45.82 11.33 45.82 9.91L45.82 9.91ZM52.29 6.08L52.29 7.07L52.35 7.07L52.35 7.07Q53.27 6.02 54.75 6.02L54.75 6.02L54.75 6.02Q55.57 6.02 56.24 6.31L56.24 6.31L56.24 6.31Q56.92 6.59 57.42 7.10L57.42 7.10L57.42 7.10Q57.92 7.62 58.19 8.32L58.19 8.32L58.19 8.32Q58.46 9.03 58.46 9.87L58.46 9.87L58.46 9.87Q58.46 10.71 58.19 11.41L58.19 11.41L58.19 11.41Q57.92 12.11 57.43 12.63L57.43 12.63L57.43 12.63Q56.94 13.15 56.26 13.43L56.26 13.43L56.26 13.43Q55.58 13.72 54.78 13.72L54.78 13.72L54.78 13.72Q53.42 13.72 52.71 12.80L52.71 12.80L52.65 12.80L52.65 14.74L52.65 14.74Q52.65 15.30 52.71 15.64L52.71 15.64L52.71 15.64Q52.77 15.97 52.95 16.16L52.95 16.16L52.95 16.16Q53.13 16.34 53.46 16.41L53.46 16.41L53.46 16.41Q53.79 16.48 54.33 16.49L54.33 16.49L54.33 17.08L49.50 17.08L49.50 16.49L49.50 16.49Q49.88 16.48 50.12 16.41L50.12 16.41L50.12 16.41Q50.36 16.34 50.49 16.16L50.49 16.16L50.49 16.16Q50.62 15.97 50.67 15.66L50.67 15.66L50.67 15.66Q50.72 15.34 50.72 14.84L50.72 14.84L50.72 9.63L50.72 9.63Q50.72 8.99 50.69 8.41L50.69 8.41L50.69 8.41Q50.67 7.83 50.62 7.59L50.62 7.59L50.62 7.59Q50.55 7.27 50.31 7.14L50.31 7.14L50.31 7.14Q50.06 7.01 49.48 7.01L49.48 7.01L49.48 6.47L52.29 6.08ZM54.67 6.82L54.67 6.82L54.67 6.82Q54.22 6.82 53.82 7.01L53.82 7.01L53.82 7.01Q53.41 7.21 53.17 7.53L53.17 7.53L53.17 7.53Q52.93 7.85 52.81 8.34L52.81 8.34L52.81 8.34Q52.68 8.82 52.68 9.38L52.68 9.38L52.68 10.33L52.68 10.33Q52.68 11.33 53.17 12.03L53.17 12.03L53.17 12.03Q53.70 12.80 54.67 12.80L54.67 12.80L54.67 12.80Q55.52 12.80 55.94 12.09L55.94 12.09L55.94 12.09Q56.35 11.38 56.35 9.90L56.35 9.90L56.35 9.90Q56.35 6.82 54.67 6.82ZM62.59 6.02L62.59 11.28L62.59 11.28Q62.59 11.84 62.64 12.18L62.64 12.18L62.64 12.18Q62.68 12.52 62.80 12.70L62.80 12.70L62.80 12.70Q62.93 12.88 63.17 12.94L63.17 12.94L63.17 12.94Q63.41 13.01 63.81 13.02L63.81 13.02L63.81 13.58L59.40 13.58L59.40 13.02L59.40 13.02Q59.79 13.01 60.04 12.93L60.04 12.93L60.04 12.93Q60.28 12.85 60.42 12.68L60.42 12.68L60.42 12.68Q60.55 12.50 60.60 12.19L60.60 12.19L60.60 12.19Q60.65 11.87 60.65 11.38L60.65 11.38L60.65 9.66L60.65 9.66Q60.65 8.85 60.62 8.32L60.62 8.32L60.62 8.32Q60.59 7.80 60.55 7.60L60.55 7.60L60.55 7.60Q60.48 7.25 60.23 7.14L60.23 7.14L60.23 7.14Q59.99 7.03 59.35 7.03L59.35 7.03L59.35 6.55L62.59 6.02ZM60.54 3.05L60.54 3.05L60.54 3.05Q60.54 2.59 60.85 2.28L60.85 2.28L60.85 2.28Q61.17 1.96 61.61 1.96L61.61 1.96L61.61 1.96Q62.08 1.96 62.39 2.28L62.39 2.28L62.39 2.28Q62.71 2.59 62.71 3.05L62.71 3.05L62.71 3.05Q62.71 3.50 62.39 3.81L62.39 3.81L62.39 3.81Q62.08 4.13 61.61 4.13L61.61 4.13L61.61 4.13Q61.17 4.13 60.85 3.81L60.85 3.81L60.85 3.81Q60.54 3.50 60.54 3.05ZM70.78 13.72L70.78 12.68L70.73 12.68L70.73 12.68Q69.76 13.72 68.22 13.72L68.22 13.72L68.22 13.72Q67.42 13.72 66.76 13.44L66.76 13.44L66.76 13.44Q66.09 13.16 65.61 12.66L65.61 12.66L65.61 12.66Q65.13 12.15 64.86 11.46L64.86 11.46L64.86 11.46Q64.60 10.77 64.60 9.93L64.60 9.93L64.60 9.93Q64.60 9.09 64.87 8.37L64.87 8.37L64.87 8.37Q65.14 7.66 65.61 7.13L65.61 7.13L65.61 7.13Q66.08 6.61 66.73 6.31L66.73 6.31L66.73 6.31Q67.38 6.02 68.14 6.02L68.14 6.02L68.14 6.02Q68.84 6.02 69.38 6.23L69.38 6.23L69.38 6.23Q69.92 6.44 70.32 6.94L70.32 6.94L70.38 6.94L70.38 5.75L70.38 5.75Q70.38 4.93 70.36 4.33L70.36 4.33L70.36 4.33Q70.34 3.74 70.29 3.56L70.29 3.56L70.29 3.56Q70.22 3.26 69.87 3.13L69.87 3.13L69.87 3.13Q69.51 3.00 68.77 3.00L68.77 3.00L68.77 2.52L72.31 1.96L72.31 9.97L72.31 9.97Q72.31 11.02 72.33 11.59L72.33 11.59L72.33 11.59Q72.35 12.15 72.41 12.45L72.41 12.45L72.41 12.45Q72.44 12.63 72.49 12.74L72.49 12.74L72.49 12.74Q72.55 12.85 72.66 12.91L72.66 12.91L72.66 12.91Q72.77 12.98 72.96 13.00L72.96 13.00L72.96 13.00Q73.15 13.02 73.44 13.02L73.44 13.02L73.44 13.57L70.78 13.72ZM70.35 10.11L70.35 9.56L70.35 9.56Q70.35 9.03 70.24 8.57L70.24 8.57L70.24 8.57Q70.13 8.12 69.90 7.77L69.90 7.77L69.90 7.77Q69.65 7.36 69.26 7.15L69.26 7.15L69.26 7.15Q68.87 6.94 68.42 6.94L68.42 6.94L68.42 6.94Q67.59 6.94 67.16 7.70L67.16 7.70L67.16 7.70Q66.72 8.46 66.72 9.90L66.72 9.90L66.72 9.90Q66.72 11.35 67.16 12.14L67.16 12.14L67.16 12.14Q67.59 12.92 68.40 12.92L68.40 12.92L68.40 12.92Q68.87 12.92 69.29 12.68L69.29 12.68L69.29 12.68Q69.71 12.45 69.97 12.04L69.97 12.04L69.97 12.04Q70.17 11.73 70.26 11.28L70.26 11.28L70.26 11.28Q70.35 10.82 70.35 10.11L70.35 10.11Z"></path></g><!----><g data-v-423bf9ae="" id="4c2770d0-13b0-4c30-a31b-61c0a132be33" transform="matrix(1.301748206720592,0,0,1.301748206720592,0.8988520234442632,-0.0009671700140785333)" stroke="none" fill="black"><path d="M64.286 38.979l-12.825-7.386a2.394 2.394 0 1 0-2.33 4.183l12.824 7.389a2.394 2.394 0 0 0 3.258-.926 2.398 2.398 0 0 0-.927-3.26z"></path><path d="M99.89 59.507l-3.788-11.995a2.395 2.395 0 1 0-4.568 1.443l2.155 6.828-13.769-7.86 2.406-2.407c7.8-7.862 7.805-17.323 5.208-23.557-2.716-6.52-8.333-10.569-14.662-10.569-3.493 0-8.639 1.256-14.128 6.896-5.511-5.684-10.677-6.951-14.183-6.951-5.898 0-11.178 3.52-14.067 9.276l-6.664-3.713-3.673-11.63a2.395 2.395 0 0 0-4.567 1.443l2.145 6.791-1.249-.696-3.515-11.13a2.394 2.394 0 1 0-4.566 1.443l3.072 9.727-9.82 3.182a2.394 2.394 0 1 0 1.476 4.554l11.048-3.579 1.004.56-6.345 2.056a2.395 2.395 0 0 0 1.475 4.556l10.58-3.428 7.961 4.437c-1.351 5.992-.286 13.695 6.248 20.282L58.7 69.141l17.704-17.704 14.69 8.383-6.313 2.048a2.394 2.394 0 1 0 1.476 4.555l12.08-3.915a2.4 2.4 0 0 0 1.553-3.001zM38.507 42.088c-6.142-6.19-6.19-13.535-4.187-18.343 1.958-4.701 5.883-7.623 10.243-7.623 3.918 0 7.976 2.282 11.771 6.612l1.965 2.323 2.27-2.323c3.947-4.733 8.203-6.557 12.306-6.557 4.358 0 8.284 2.92 10.242 7.621 2.003 4.809 1.954 12.152-4.181 18.334L58.71 62.359 38.507 42.088z"></path></g><!----></svg>