<svg data-v-423bf9ae="" xmlns="http://www.w3.org/2000/svg" viewBox="0 0 86.81764977799122 60" class="icon"><!----><!----><!----><!----><g data-v-423bf9ae="" id="c7a7e1ac-47a4-4177-924a-3cfb3f329102" transform="matrix(0.867832137813728,0,0,0.867832137813728,0.03476914214537885,-0.0027816720276057083)" stroke="none" fill="white"><path d="M64.286 38.979l-12.825-7.386a2.394 2.394 0 1 0-2.33 4.183l12.824 7.389a2.394 2.394 0 0 0 3.258-.926 2.398 2.398 0 0 0-.927-3.26z"></path><path d="M99.89 59.507l-3.788-11.995a2.395 2.395 0 1 0-4.568 1.443l2.155 6.828-13.769-7.86 2.406-2.407c7.8-7.862 7.805-17.323 5.208-23.557-2.716-6.52-8.333-10.569-14.662-10.569-3.493 0-8.639 1.256-14.128 6.896-5.511-5.684-10.677-6.951-14.183-6.951-5.898 0-11.178 3.52-14.067 9.276l-6.664-3.713-3.673-11.63a2.395 2.395 0 0 0-4.567 1.443l2.145 6.791-1.249-.696-3.515-11.13a2.394 2.394 0 1 0-4.566 1.443l3.072 9.727-9.82 3.182a2.394 2.394 0 1 0 1.476 4.554l11.048-3.579 1.004.56-6.345 2.056a2.395 2.395 0 0 0 1.475 4.556l10.58-3.428 7.961 4.437c-1.351 5.992-.286 13.695 6.248 20.282L58.7 69.141l17.704-17.704 14.69 8.383-6.313 2.048a2.394 2.394 0 1 0 1.476 4.555l12.08-3.915a2.4 2.4 0 0 0 1.553-3.001zM38.507 42.088c-6.142-6.19-6.19-13.535-4.187-18.343 1.958-4.701 5.883-7.623 10.243-7.623 3.918 0 7.976 2.282 11.771 6.612l1.965 2.323 2.27-2.323c3.947-4.733 8.203-6.557 12.306-6.557 4.358 0 8.284 2.92 10.242 7.621 2.003 4.809 1.954 12.152-4.181 18.334L58.71 62.359 38.507 42.088z"></path></g><!----></svg>